<?xml version="1.0" encoding="utf-8"?>
<!-- Generator: Adobe Illustrator 22.1.0, SVG Export Plug-In . SVG Version: 6.00 Build 0)  -->
<svg version="1.1" id="Layer_2_1_" xmlns="http://www.w3.org/2000/svg" xmlns:xlink="http://www.w3.org/1999/xlink" x="0px" y="0px"
	 viewBox="0 0 1526.4 545.3" style="enable-background:new 0 0 1526.4 545.3;" xml:space="preserve">
<style type="text/css">
	.st0{fill:#0176B6;}
	.st1{fill:#01C4C5;}
</style>
<g>
	<path class="st0" d="M163.8,164.3c-1-1.7-2.7-2.9-4.4-4c-13-8.2-30.1-9.3-44-2.9c-8.8,4-16.4,11.1-19.8,20.1
		c-3.4,9-2,20.1,4.6,27.2c-12.3,8.1-20.9,24.3-14.9,37.8c4.5,10.2,16,15.8,27.1,17.1s19.5,2,30.6,1.3s22.5,0.8,31.6,7.2
		c9.2,6.5,17.4,14,21.8,24.3c1.6,3.6,3.1,7.3,4.7,10.9c3.7-11.8,0.2-25.1-7-35.1s-17.8-17.3-28.8-22.9
		c-11.6-5.9-24.4-10.6-32.5-20.6c-1.2-1.5-2.3-3.1-2.5-5c-0.3-3.3,2.5-6.3,5.7-7.4c3.2-1.1,6.6-0.6,10-0.2c-3.6-1.8-7-4.7-7.8-8.6
		c-1.7-7.7,7.6-14.1,15.4-12.8c3.7,0.6,20.5,9.8,17.4,5.6c-4.9-6.7-6.2-10.3-7.2-14.8C160.9,168.6,163.8,164.3,163.8,164.3z"/>
	<path class="st1" d="M161.7,363.2c-7.2-0.7-13.7-4.5-19.2-8.8c-5.2-4-10.1-8.8-11.7-14.8c-2-7.4-1.6-15.2,2.6-21.8
		c5-7.9,11.2-14.5,22.6-20.3c7-3.6,13.4-6.1,21.2-7.3c11.5-1.8,3.5-6.6-3.9-8.1c-15.7-3.3-32.3-0.3-46.9,5.8
		c-21.5,8.9-39.5,24.5-50.2,43.5c-3.1,5.5-3.3,5.6-5.1,11.6c-3.4,10-1.6,19.1,0.1,24.7c1.9,6.1,5.1,12.5,10,17
		c9.4,8.5,23.2,12.1,35.4,7.8c-1.7,3.8-2.1,7.9-1.7,12c1,11.5,7.9,22.3,17.9,29.5s27.7,10.7,40.4,10.5
		c-15.6-14.1-23.6-28.3-24.5-39.4C145.6,368.3,161.7,363.2,161.7,363.2z"/>
	<path class="st1" d="M341.3,165.9c-3.3,25.4-16.2,49.5-35.6,66.3c-10.9,9.4-20.2,17.1-27,29.8c-5.9-9.3,6.2-35,9.5-45
		c4.8-14.7,9.7-29.7,9-45.4c-0.3-6.1-1.4-12.4-4.7-17.6c-3.2-5.2-8.8-9.3-14.9-9.5c-6.2-0.2-17.3,3.9-22.5,9.5c0,0,0,0,0,0
		c0,0,0,0,0,0c-5.2-5.6-16.2-9.8-22.5-9.5c-6.1,0.2-11.7,4.3-14.9,9.5c-3.2,5.2-4.4,11.5-4.7,17.6c-0.7,15.7,4.2,30.7,9,45.4
		c3.3,10,15.4,35.7,9.5,45c-6.8-12.7-16.1-20.4-27-29.8c-19.3-16.8-32.2-40.9-35.6-66.3c-2.1-16.1-0.4-32.9,6.2-47.7
		c6.7-14.8,18.5-27.5,33.4-34c13.9-6,33.1-4.9,40.8,8.2c2.5,4.1,4.5,10.9,5.7,17.4c1.2-6.5,3.2-13.3,5.7-17.4
		c7.8-13,26.9-14.2,40.8-8.2c14.9,6.5,26.7,19.2,33.4,34C341.8,133,343.5,149.8,341.3,165.9z"/>
	<path class="st0" d="M346.6,164.3c1-1.7,2.7-2.9,4.4-4c13-8.2,30.1-9.3,44-2.9c8.8,4,16.4,11.1,19.8,20.1c3.4,9,2,20.1-4.6,27.2
		c12.3,8.1,20.9,24.3,14.9,37.8c-4.5,10.2-16,15.8-27.1,17.1c-11.1,1.3-19.5,2-30.6,1.3s-22.5,0.8-31.6,7.2
		c-9.2,6.5-17.4,14-21.8,24.3c-1.6,3.6-3.1,7.3-4.7,10.9c-3.7-11.8-0.2-25.1,7-35.1c7.2-10.1,17.8-17.3,28.8-22.9
		c11.6-5.9,24.4-10.6,32.5-20.6c1.2-1.5,2.3-3.1,2.5-5c0.3-3.3-2.5-6.3-5.7-7.4c-3.2-1.1-6.6-0.6-10-0.2c3.6-1.8,7-4.7,7.8-8.6
		c1.7-7.7-7.6-14.1-15.4-12.8c-3.7,0.6-20.5,9.8-17.4,5.6c4.9-6.7,6.2-10.3,7.2-14.8C349.6,168.6,346.6,164.3,346.6,164.3z"/>
	<path class="st1" d="M348.7,363.2c7.2-0.7,13.7-4.5,19.2-8.8c5.2-4,10.1-8.8,11.7-14.8c2-7.4,1.6-15.2-2.6-21.8
		c-5-7.9-11.2-14.5-22.6-20.3c-7-3.6-13.4-6.1-21.2-7.3c-11.5-1.8-3.5-6.6,3.9-8.1c15.7-3.3,32.3-0.3,46.9,5.8
		c21.5,8.9,39.5,24.5,50.2,43.5c3.1,5.5,3.3,5.6,5.1,11.6c3.4,10,1.6,19.1-0.1,24.7c-1.9,6.1-5.1,12.5-10,17
		c-9.4,8.5-23.2,12.1-35.4,7.8c1.7,3.8,2.1,7.9,1.7,12c-1,11.5-7.9,22.3-17.9,29.5s-27.7,10.7-40.4,10.5
		c15.6-14.1,23.6-28.3,24.5-39.4C364.8,368.3,348.7,363.2,348.7,363.2z"/>
	<path class="st0" d="M341.8,405.7c-1.1,6.2-3.7,12.1-6.4,17.8c-7.9,16.5-18.8,32.9-35.6,40.5c-7.8,3.6-16.6,5-25.2,4.1
		c-6.2-0.6-12.6-2.7-16.4-7.5c-1.4-1.9-2.4-4-3-6.2c-0.6,2.2-1.5,4.3-3,6.2c-3.8,4.8-10.2,6.9-16.4,7.5c-8.6,0.9-17.4-0.6-25.2-4.1
		c-16.8-7.7-27.7-24.1-35.6-40.5c-2.8-5.7-5.3-11.6-6.4-17.8c-1.2-6.5-0.9-13.2,0.3-19.6c1.7-9.7,5.3-19.1,10.5-27.5
		c4.1-6.8,10.9-19.1,16-25.2c11.2-14.1,19.9-23.5,33.4-35.3c2.5,1.7-2.5,7.3-3.8,9.4c-2.1,3.5-4.3,7-5.8,10.8
		c-3.5,8.5-7.7,23.6-7.5,32.8c0.1,6.4,0.1,10.1,1.8,17.2c2.5,6.7,4.2,9.5,9.2,15c5,5.5,15.4,8.2,21.5,4c5-3.4,8.5-7.7,11-12.2
		c0,0,0,0,0-0.1c0,0,0,0,0,0.1c2.5,4.5,6,8.8,11,12.2c6.1,4.2,16.5,1.5,21.5-4c5-5.5,6.8-8.3,9.2-15c1.7-7.1,1.7-10.8,1.8-17.2
		c0.2-9.2-4-24.3-7.5-32.8c-1.6-3.8-3.7-7.3-5.8-10.8c-1.3-2.1-6.3-7.7-3.8-9.4c13.5,11.8,22.2,21.2,33.4,35.3
		c5.1,6.1,11.8,18.4,16,25.2c5.2,8.4,8.7,17.8,10.5,27.5C342.7,392.5,343,399.2,341.8,405.7z"/>
	<path class="st0" d="M279.7,296c-3.7-2.7-7.5-4.9-11.6-6.9c-3.7-1.9-8.6-3.3-12.9-3.5h0c-4.3,0.2-9.1,1.6-12.9,3.5
		c-4.1,2-7.9,4.3-11.6,6.9c11.6-12.2,18.3-29.1,18.1-46c0-3.7-0.4-7.4,0.4-11c0.8-3.5,2.8-6.9,6-8.3h0c3.2,1.4,5.2,4.8,6,8.3
		c0.8,3.6,0.4,7.3,0.4,11C261.5,266.9,268.1,283.8,279.7,296z"/>
</g>
<g>
	<g>
		<g>
			<path class="st0" d="M516.8,316.9v-82.3h54.6l2.1,17.3h-34.6v15h25.3l2.1,17.3h-27.3v15.4H575l2.1,17.3H516.8z"/>
			<path class="st0" d="M622.8,290.6l19.6-55.9h21.9l-30.9,82.3h-22l-30.7-81.3l21.7-2.2L622.8,290.6z"/>
			<path class="st0" d="M675.2,316.9v-82.3h54.6l2.1,17.3h-34.6v15h25.3l2.1,17.3h-27.3v15.4h36.2l2.1,17.3H675.2z"/>
			<path class="st0" d="M747.6,234.6h34.6c9.8,0,17.9,2.3,24.3,7c6.4,4.7,9.6,11.7,9.6,21.1c0,4.8-1,9.1-3,12.8
				c-2,3.7-4.7,6.7-8.2,9l18.1,32.4h-25.5L784.2,291h-14.6v25.9h-22V234.6z M781.4,252h-11.9v21.8h12.1c3.4,0,6.2-1,8.3-3.1
				c2.2-2.1,3.3-4.7,3.3-7.9c0-3.5-1-6.2-3.1-8C788.2,252.9,785.2,252,781.4,252z"/>
			<path class="st0" d="M851.6,316.9v-32.4l-26.1-45.7l21.1-5.8l16,31.3l17.1-29.6h22.6l-28.6,50.1v32.2H851.6z"/>
			<path class="st0" d="M1023.2,234.6l-23.6,82.3h-22L964,265.3l-12.7,51.7h-22l-24.7-81.3l21.7-2.2l14.4,57.1l12.3-55.9h21.9
				l14,55.9l12.3-55.9H1023.2z"/>
			<path class="st0" d="M1070.5,233c8.7,0,16.3,1.9,22.7,5.6c6.4,3.7,11.3,8.8,14.8,15.2c3.4,6.5,5.1,13.6,5.1,21.5
				c0,8.4-1.8,15.9-5.4,22.4c-3.6,6.6-8.6,11.7-15.1,15.4c-6.5,3.7-13.8,5.5-22.1,5.5c-8.6,0-16-1.9-22.4-5.6s-11.4-8.9-14.8-15.3
				c-3.5-6.5-5.2-13.6-5.2-21.5c0-8.3,1.8-15.7,5.4-22.3c3.6-6.6,8.7-11.7,15.1-15.4C1055.1,234.8,1062.4,233,1070.5,233z
				 M1050.7,276c0,7.1,1.8,12.9,5.3,17.4c3.5,4.5,8.3,6.8,14.5,6.8c5.9,0,10.7-2.2,14.5-6.5c3.8-4.3,5.6-10.5,5.6-18.5
				c0-7-1.8-12.8-5.4-17.2c-3.6-4.5-8.4-6.7-14.3-6.7c-3.7,0-7.1,1-10.1,3.1c-3,2.1-5.4,5-7.3,8.7S1050.7,271.2,1050.7,276z"/>
			<path class="st0" d="M1161.7,293.3l-13.3-16.2v39.8h-22v-82.3h15.1l24.8,31.3l22.7-31.3h14.6v82.3h-22v-39.8l-11.1,15
				L1161.7,293.3z"/>
			<path class="st0" d="M1267.5,234.6l30.7,81.3l-21.7,2.2l-5.9-17.4h-28.4l-5.7,16.2h-21.9l30.9-82.3H1267.5z M1256.1,261
				l-7.9,22.4h16.1L1256.1,261z"/>
			<path class="st0" d="M1309.1,316.9v-82.3h20.4l31.7,44.6v-44.6h22v82.3h-20.6l-31.6-43.3v43.3H1309.1z"/>
			<path class="st0" d="M1399.6,213c2.1,0,3.9,0.8,5.3,2.4c1.4,1.6,2.2,3.7,2.2,6.3c0,3.2-1.2,6.3-3.7,9.3c-2.4,3-5.5,5.2-9.1,6.5
				l-2.9-6.5c0.9-0.5,1.8-1.1,2.6-2s1.4-1.5,1.6-2.2c-1-0.7-1.9-1.5-2.5-2.7c-0.7-1.1-1-2.4-1-3.7c0-1.9,0.7-3.6,2.2-5.2
				C1395.8,213.8,1397.6,213,1399.6,213z"/>
			<path class="st0" d="M1397.4,311.8l7.3-16.6c2.2,1.3,5.2,2.5,9,3.6c3.8,1.1,7.2,1.6,10.1,1.6c3.2,0,5.8-0.7,7.7-2
				c1.9-1.3,2.9-2.8,2.9-4.4c0-1-0.7-2.1-2.1-3.1c-1.4-1-3.7-2.4-6.8-4.3l-3.8-2.2c-5.5-3.2-9.8-5.9-12.8-8
				c-3.1-2.1-5.8-4.9-8.2-8.3c-2.4-3.4-3.6-7.2-3.6-11.5c0-4.5,1.3-8.6,3.8-12.2c2.5-3.6,6.1-6.4,10.7-8.4c4.6-2,10-3,16.1-3
				c4.2,0,8.5,0.6,12.9,1.8c4.4,1.2,8.2,2.9,11.3,5l-6.5,14.9c-4.3-1.5-7.6-2.4-9.9-2.9c-2.3-0.5-4.8-0.7-7.6-0.7
				c-2.4,0-4.4,0.6-5.9,1.7c-1.5,1.1-2.2,2.5-2.2,4.1c0,1.2,0.6,2.3,1.9,3.2c1.2,0.9,3.3,2.2,6.2,3.7l4.4,2.4
				c5.1,2.9,9.3,5.6,12.7,8c3.4,2.5,6.3,5.4,8.7,8.7c2.4,3.3,3.6,7.1,3.6,11.3c0,4.7-1.3,8.8-4,12.5c-2.7,3.6-6.5,6.5-11.4,8.6
				s-10.8,3.1-17.4,3.1c-4.3,0-9.1-0.6-14.3-1.9C1404.7,315.3,1400.5,313.7,1397.4,311.8z"/>
		</g>
	</g>
	<g>
		<path class="st1" d="M551.1,418.4v-25.5h-24.5v25.5h-9.6v-58.5l9.6-0.4v25.7h24.5v-25.3h9.6v58.5H551.1z"/>
		<path class="st1" d="M588.7,418.4v-58.5h33.9l1.4,7.6h-25.6v17.5h19.4l1.5,7.6h-20.9v18.3h27.9l1.5,7.6H588.7z"/>
		<path class="st1" d="M674,359.9l22.5,57.9l-9.5,1.4l-5.8-15.5h-23l-5.6,14.7h-9.5l22.4-58.5H674z M669.6,373l-8.5,22.8h17.3
			L669.6,373z"/>
		<path class="st1" d="M755,418.4h-37.1v-58.5h9.6v50.9h26.1L755,418.4z"/>
		<path class="st1" d="M817.8,367.5h-20v50.8H788v-50.8h-18.4v-7.7h46.8L817.8,367.5z"/>
		<path class="st1" d="M873.3,418.4v-25.5h-24.5v25.5h-9.6v-58.5l9.6-0.4v25.7h24.5v-25.3h9.6v58.5H873.3z"/>
		<path class="st1" d="M982.3,362.3l-2.9,7c-3-1-5.3-1.6-6.8-1.9c-1.5-0.3-3.4-0.5-5.7-0.5c-3.3,0-6.3,0.9-9,2.8
			c-2.7,1.9-4.8,4.5-6.3,7.9c-1.5,3.4-2.3,7.4-2.3,11.8c0,4.1,0.7,7.8,2,11.1c1.3,3.3,3.3,6,5.8,8c2.5,2,5.6,3,9.1,3
			c4.5,0,8.7-0.9,12.8-2.7l3.7,7.2c-2.1,1-4.6,1.9-7.7,2.6c-3.1,0.7-5.9,1-8.4,1c-5.8,0-10.8-1.3-15-4s-7.2-6.3-9.3-10.8
			c-2.1-4.6-3.1-9.6-3.1-15.3c0-5.9,1.1-11.2,3.4-15.9c2.3-4.7,5.5-8.3,9.8-11c4.2-2.6,9.1-4,14.7-4c2.1,0,4.6,0.3,7.6,0.9
			C977.7,360.2,980.2,361.1,982.3,362.3z"/>
		<path class="st1" d="M1004.6,418.4v-58.5h33.9l1.4,7.6h-25.6v17.5h19.4l1.5,7.6h-20.9v18.3h27.9l1.5,7.6H1004.6z"/>
		<path class="st1" d="M1065.8,418.4v-58.5h9.1l28.7,41.2v-41.2h9.7v58.5h-9.2l-28.7-41.5v41.5H1065.8z"/>
		<path class="st1" d="M1182.9,367.5h-20v50.8h-9.8v-50.8h-18.4v-7.7h46.8L1182.9,367.5z"/>
		<path class="st1" d="M1204.2,359.9h17.5c6.7,0,12.2,1.5,16.3,4.4c4.2,3,6.3,7.4,6.3,13.2c0,3.6-0.9,6.7-2.8,9.4
			c-1.8,2.6-4.3,4.6-7.3,6l14.5,25.5h-10.4l-12.7-23c-1.1,0.2-2.7,0.3-4.7,0.3h-7.1v22.8h-9.6V359.9z M1221.5,368h-7.7v19.7h7.5
			c3.8,0,6.9-0.8,9.3-2.3c2.4-1.5,3.5-4,3.5-7.4c0-3.6-1.1-6.1-3.3-7.7S1225.6,368,1221.5,368z"/>
		<path class="st1" d="M1270.1,418.4v-58.5h33.9l1.4,7.6h-25.6v17.5h19.4l1.5,7.6h-20.9v18.3h27.9l1.5,7.6H1270.1z"/>
	</g>
</g>
</svg>
